<mxfile host="app.diagrams.net" modified="2024-03-29T12:49:21.411Z" agent="Mozilla/5.0 (Windows NT 10.0; Win64; x64) AppleWebKit/537.36 (KHTML, like Gecko) Chrome/123.0.0.0 Safari/537.36" version="24.2.1" etag="mGHQG7Azxc-HBotbyBwS" type="github">
  <diagram name="Page-1" id="ymZK5p-_8e50H6e2Fi-k">
    <mxGraphModel>
      <root>
        <mxCell id="0" />
        <mxCell id="1" parent="0" />
      </root>
    </mxGraphModel>
  </diagram>
</mxfile>
